# xmcd CD database file generated by OrangeCD 5.2
#
# Track frame offsets:
#	150
#	16205
#	32271
#	47095
#	64178
#	78769
#	91121
#	98822
#	112904
#	125355
#	139394
#	155478
#	158368
#	167274
#
# Disc length: 2301 seconds
#
# Revision: 0
# Processed by: cddbd v1.5.1PL0 Copyright (c) Steve Scherf et al.
# Submitted via: OrangeCD 5.2
#
DISCID=9508fb0e
DTITLE=Johnny Cash - More American Recordings cd 3
DYEAR=1900
DGENRE=Country
TTITLE0=Johnny Cash and June Carter Cash - Jackson
TTITLE1=Johnny Cash and June Carter Cash - If I Were A Carpenter
TTITLE2=Johnny Cash and June Carter Cash - It Ain't Me Babe
TTITLE3=Johnny Cash and June Carter Cash - Live Forever
TTITLE4=Johnny Cash , June Carter Cash and Rosie Cash - Will The Circle Be Unbrok
TTITLE4=en
TTITLE5=The Next Time I'm In Town
TTITLE6=Guess Things Happen That Way
TTITLE7=The Ballad Of Ira Hayes
TTITLE8=Home Of The Blues
TTITLE9=Long Black Veil
TTITLE10=A Boy Named Sue
TTITLE11=Jam
TTITLE12=Peace In The Valley
TTITLE13=Outro
EXTD=
EXTT0=
EXTT1=
EXTT2=
EXTT3=
EXTT4=
EXTT5=
EXTT6=
EXTT7=
EXTT8=
EXTT9=
EXTT10=
EXTT11=
EXTT12=
EXTT13=
PLAYORDER=
